#!OML:ASF F:\VICON\USERDATA\INSTALL\rory3\rory3.ASF
:FULLY-SPECIFIED
:DEGREES
388
root 12.4647 15.7088 -10.8878 -187.268 55.7933 -186.299
lowerback 8.53817 0.488745 -3.71415
upperback -0.565913 0.241243 -1.01035
thorax -5.39838 0.221588 1.00275
lowerneck -11.1796 -8.87572 -12.7836
upperneck 23.8085 -11.5776 9.41638
head 10.8352 -5.25166 3.99495
rclavicle -6.22701e-014 -3.26007e-014
rhumerus -37.7272 1.9321 -87.913
rradius 32.7022
rwrist 6.77253
rhand -17.0686 13.3349
rfingers 7.12502
rthumb 9.16912 -16.4458
lclavicle -6.22701e-014 -3.26007e-014
lhumerus -31.3565 10.7818 77.1244
lradius 22.9832
lwrist -4.79207
lhand -12.128 13.0285
lfingers 7.12502
lthumb 13.9337 42.5416
rfemur -20.2614 0.0713358 18.0316
rtibia 62.1547
rfoot -10.0701 -13.0048
rtoes -10.3747
lfemur -10.4749 -4.37318 -29.701
ltibia 29.7164
lfoot -15.1785 13.432
ltoes -5.09716
389
root 12.5177 15.6926 -10.9415 -187.13 55.9749 -186.198
lowerback 8.58084 0.45713 -3.67539
upperback -0.55571 0.203408 -0.952131
thorax -5.41007 0.202297 1.04658
lowerneck -11.1616 -8.82901 -12.771
upperneck 23.7855 -11.5049 9.37682
head 10.8101 -5.22343 3.99007
rclavicle -5.54073e-014 -1.75179e-015
rhumerus -37.7096 2.25486 -87.9666
rradius 32.8237
rwrist 6.61366
rhand -17.0362 13.368
rfingers 7.12502
rthumb 9.20044 -16.4113
lclavicle -5.54073e-014 -1.75179e-015
lhumerus -31.1283 10.4821 77.4239
lradius 23.3239
lwrist -4.51522
lhand -12.3729 12.8777
lfingers 7.12502
lthumb 13.6977 42.4069
rfemur -21.1559 0.151753 18.2647
rtibia 61.3132
rfoot -10.8671 -13.5206
rtoes -10.6824
lfemur -10.2781 -4.13325 -29.7513
ltibia 29.8401
lfoot -15.2814 13.717
ltoes -8.10401
390
root 12.5713 15.6834 -10.9955 -187.067 56.0893 -186.143
lowerback 8.73061 0.414147 -3.68316
upperback -0.58511 0.139303 -0.895221
thorax -5.52297 0.173402 1.11807
lowerneck -11.1935 -8.80059 -12.7997
upperneck 23.8544 -11.453 9.35953
head 10.836 -5.20217 3.99665
rclavicle 8.27371e-014 -8.38623e-016
rhumerus -37.7462 2.44664 -87.9802
rradius 32.8857
rwrist 6.46469
rhand -17.249 13.5276
rfingers 7.12502
rthumb 8.99512 -16.2606
lclavicle 8.27371e-014 -8.38623e-016
lhumerus -31.018 9.82149 77.8663
lradius 23.8243
lwrist -3.7607
lhand -12.987 12.8051
lfingers 7.12502
lthumb 13.1057 42.3733
rfemur -21.9712 0.202533 18.4245
rtibia 60.3909
rfoot -12.0055 -13.7393
rtoes -10.3739
lfemur -10.0109 -3.94655 -29.817
ltibia 29.9075
lfoot -15.4781 13.7471
ltoes -8.73933
391
root 12.6264 15.676 -11.0497 -187.262 56.1827 -186.388
lowerback 8.83816 0.368015 -3.86405
upperback -0.589186 0.0544187 -0.889188
thorax -5.58475 0.138395 1.23701
lowerneck -11.1978 -8.74488 -12.796
upperneck 23.8664 -11.3769 9.36972
head 10.8316 -5.16594 4.01202
rclavicle 1.19986e-013 6.17475e-015
rhumerus -37.7564 2.64933 -88.0011
rradius 32.9724
rwrist 6.35496
rhand -17.428 13.4817
rfingers 7.12502
rthumb 8.82234 -16.3139
lclavicle 1.19986e-013 6.17475e-015
lhumerus -30.9403 9.18622 78.2711
lradius 24.3891
lwrist -2.951
lhand -12.9899 12.9593
lfingers 7.12502
lthumb 13.1029 42.5276
rfemur -22.7063 0.22911 18.3792
rtibia 59.3751
rfoot -13.1981 -13.8078
rtoes -9.69635
lfemur -9.70071 -3.84395 -30.0416
ltibia 29.9019
lfoot -16.0827 13.7484
ltoes -8.06927
392
root 12.6811 15.6673 -11.1048 -187.488 56.3213 -186.689
lowerback 8.88738 0.34243 -4.03529
upperback -0.573836 0.000180225 -0.911167
thorax -5.59414 0.116992 1.31747
lowerneck -11.2229 -8.69725 -12.7282
upperneck 23.8575 -11.3136 9.33828
head 10.818 -5.13454 3.99844
rclavicle -4.43441e-015 -3.55328e-015
rhumerus -37.7174 2.87256 -88.0396
rradius 33.0485
rwrist 6.16032
rhand -17.4561 13.3738
rfingers 7.12502
rthumb 8.79522 -16.423
lclavicle -4.43441e-015 -3.55328e-015
lhumerus -30.8241 8.59734 78.6468
lradius 24.9388
lwrist -2.35673
lhand -12.7108 13.1802
lfingers 7.12502
lthumb 13.3719 42.7311
rfemur -23.3748 0.244395 18.3011
rtibia 58.2383
rfoot -13.8745 -14.1901
rtoes -8.84863
lfemur -9.35997 -3.86341 -30.3017
ltibia 29.811
lfoot -16.7136 13.9448
ltoes -7.75061
393
root 12.738 15.6652 -11.1616 -187.564 56.4478 -186.83
lowerback 8.87766 0.289455 -4.08982
upperback -0.557255 -0.0753271 -0.925357
thorax -5.56725 0.0807986 1.34355
lowerneck -11.2628 -8.66178 -12.7529
upperneck 23.9271 -11.2762 9.41708
head 10.8534 -5.10846 4.0375
rclavicle 5.76132e-014 6.07536e-015
rhumerus -37.6712 2.93096 -88.0482
rradius 33.1346
rwrist 6.1495
rhand -17.5315 13.1677
rfingers 7.12502
rthumb 8.72247 -16.6321
lclavicle 5.76132e-014 6.07536e-015
lhumerus -30.6792 8.00323 78.9859
lradius 25.3843
lwrist -1.82772
lhand -13.1046 13.1765
lfingers 7.12502
lthumb 12.9924 42.7519
rfemur -23.9911 0.268518 18.307
rtibia 56.9476
rfoot -14.4047 -14.7754
rtoes -8.30996
lfemur -8.99393 -3.90621 -30.4746
ltibia 29.6825
lfoot -17.0591 14.1156
ltoes -7.64902
394
root 12.7963 15.6699 -11.2164 -187.647 56.5978 -187.059
lowerback 8.78607 0.253611 -4.21599
upperback -0.56039 -0.132442 -0.951691
thorax -5.51574 0.0553533 1.39456
lowerneck -11.1925 -8.62077 -12.7548
upperneck 23.8956 -11.2432 9.49726
head 10.8287 -5.08711 4.07465
rclavicle -9.25189e-014 -1.12686e-014
rhumerus -37.6249 2.8287 -87.9851
rradius 33.1531
rwrist 6.2887
rhand -17.5385 13.19
rfingers 7.12502
rthumb 8.71572 -16.6101
lclavicle -9.25189e-014 -1.12686e-014
lhumerus -30.5722 7.25336 79.3998
lradius 25.8663
lwrist -0.975889
lhand -13.615 13.0773
lfingers 7.12502
lthumb 12.5003 42.6834
rfemur -24.6197 0.295425 18.3157
rtibia 55.4943
rfoot -15.2623 -15.3847
rtoes -7.6633
lfemur -8.70407 -3.93387 -30.6581
ltibia 29.5328
lfoot -17.4086 14.1519
ltoes -6.37571
395
root 12.8543 15.6738 -11.2683 -187.739 56.7536 -187.254
lowerback 8.74455 0.242286 -4.32129
upperback -0.546281 -0.156367 -0.979774
thorax -5.47613 0.0457151 1.42751
lowerneck -11.1145 -8.59936 -12.729
upperneck 23.8201 -11.2358 9.54543
head 10.7856 -5.08001 4.09068
rclavicle 9.04486e-014 -2.14936e-014
rhumerus -37.5629 2.64246 -87.8919
rradius 33.1638
rwrist 6.41527
rhand -17.491 13.2984
rfingers 7.12502
rthumb 8.76155 -16.4997
lclavicle 9.04486e-014 -2.14936e-014
lhumerus -30.3999 6.63895 79.7773
lradius 26.3272
lwrist -0.434652
lhand -13.7608 13.1114
lfingers 7.12502
lthumb 12.3597 42.726
rfemur -25.1098 0.255622 18.4087
rtibia 53.8881
rfoot -15.8148 -15.9784
rtoes -7.6055
lfemur -8.37066 -3.88694 -30.791
ltibia 29.3123
lfoot -17.6565 14.1279
ltoes -3.46833
396
root 12.9151 15.678 -11.321 -187.7 56.9055 -187.168
lowerback 8.78338 0.235251 -4.29333
upperback -0.496269 -0.162016 -0.962813
thorax -5.44507 0.0412615 1.43043
lowerneck -11.155 -8.61814 -12.7606
upperneck 23.8846 -11.2789 9.64184
head 10.8315 -5.0893 4.1246
rclavicle -9.94686e-014 -1.80397e-014
rhumerus -37.5288 2.33646 -87.7381
rradius 33.2277
rwrist 6.61309
rhand -17.4134 13.3573
rfingers 7.12502
rthumb 8.83647 -16.4377
lclavicle -9.94686e-014 -1.80397e-014
lhumerus -30.225 6.19051 80.0569
lradius 26.7756
lwrist -0.192491
lhand -13.5878 12.9948
lfingers 7.12502
lthumb 12.5266 42.5993
rfemur -25.3596 0.210642 18.6666
rtibia 52.1649
rfoot -16.2019 -16.4999
rtoes -8.18674
lfemur -7.85165 -3.75673 -30.7774
ltibia 29.0049
lfoot -17.8147 14.1202
ltoes -1.96839
397
root 12.9756 15.687 -11.3756 -187.695 57.0688 -187.144
lowerback 8.81902 0.20514 -4.30446
upperback -0.49428 -0.204338 -0.941421
thorax -5.46064 0.0211932 1.46474
lowerneck -11.1479 -8.61052 -12.7351
upperneck 23.9709 -11.2797 9.65555
head 10.8613 -5.0836 4.12757
rclavicle -2.17696e-014 1.29831e-014
rhumerus -37.5654 2.16475 -87.6195
rradius 33.2784
rwrist 6.75921
rhand -17.4313 13.3873
rfingers 7.12502
rthumb 8.81913 -16.4084
lclavicle -2.17696e-014 1.29831e-014
lhumerus -30.2044 5.67008 80.3273
lradius 27.2717
lwrist 0.19343
lhand -13.3809 13.0056
lfingers 7.12502
lthumb 12.726 42.5978
rfemur -25.5937 0.152999 18.8597
rtibia 50.3938
rfoot -16.8846 -16.9434
rtoes -9.36774
lfemur -7.26812 -3.75181 -30.8362
ltibia 28.5602
lfoot -17.9026 14.3376
ltoes -2.58034
